<?xml version="1.0"?>
<svg xmlns="http://www.w3.org/2000/svg" viewBox="0 0 512 512" width="512" height="512"><g id="filled_outline" data-name="filled outline"><path d="M264,152A159.992,159.992,0,0,0,152.919,427.145L128,472H264a160,160,0,0,0,0-320Z" style="fill:#cbcbcb"/><path d="M216,120A159.992,159.992,0,0,0,104.919,395.145L80,440H216a160,160,0,0,0,0-320Z" style="fill:#eaeae8"/><path d="M300.568,279.432,220,360l-80.568-80.568A39.032,39.032,0,0,1,128,251.832h0A39.032,39.032,0,0,1,167.032,212.8h0a39.032,39.032,0,0,1,27.6,11.432L220,249.6l25.368-25.368a39.032,39.032,0,0,1,27.6-11.432h0A39.032,39.032,0,0,1,312,251.832h0A39.032,39.032,0,0,1,300.568,279.432Z" style="fill:#f16465"/><path d="M224,324a8,8,0,0,1-5.657-13.657l8-8a8,8,0,1,1,11.314,11.314l-8,8A7.976,7.976,0,0,1,224,324Z" style="fill:#c44c31"/><path d="M252,296a8,8,0,0,1-5.657-13.657l20-20a8,8,0,0,1,11.314,11.314l-20,20A7.976,7.976,0,0,1,252,296Z" style="fill:#c44c31"/><path d="M402.272,125.728,376,152l-26.272-26.272a12.727,12.727,0,0,1-3.728-9h0A12.727,12.727,0,0,1,358.728,104h0a12.727,12.727,0,0,1,9,3.728L376,116l8.272-8.272a12.727,12.727,0,0,1,9-3.728h0A12.727,12.727,0,0,1,406,116.728h0A12.727,12.727,0,0,1,402.272,125.728Z" style="fill:#f16465"/><path d="M460.272,69.728,434,96,407.728,69.728a12.727,12.727,0,0,1-3.728-9h0A12.727,12.727,0,0,1,416.728,48h0a12.727,12.727,0,0,1,9,3.728L434,60l8.272-8.272a12.727,12.727,0,0,1,9-3.728h0A12.727,12.727,0,0,1,464,60.728h0A12.727,12.727,0,0,1,460.272,69.728Z" style="fill:#f16465"/><path d="M144,416h-8a8,8,0,0,1,0-16h8a8,8,0,0,1,0,16Z" style="fill:#cbcbcb"/><path d="M200,416H176a8,8,0,0,1,0-16h24a8,8,0,0,1,0,16Z" style="fill:#cbcbcb"/><path d="M216,112c-92.636,0-168,75.364-168,168A166.5,166.5,0,0,0,95,396.534L73.007,436.115A8,8,0,0,0,80,448h52.182l-11.175,20.115A8,8,0,0,0,128,480H264c92.636,0,168-75.365,168-168A167.923,167.923,0,0,0,331.509,158.124,167.4,167.4,0,0,0,216,112ZM93.6,432l18.317-32.97a8,8,0,0,0-1.438-9.642A150.753,150.753,0,0,1,64,280c0-83.813,68.187-152,152-152s152,68.187,152,152S299.813,432,216,432ZM416,312c0,83.813-68.187,152-152,152H141.6l8.889-16H216c92.636,0,168-75.364,168-168a166.957,166.957,0,0,0-23.344-85.337A151.915,151.915,0,0,1,416,312Z"/><path d="M214.343,365.657a8,8,0,0,0,11.314,0l80.568-80.568a47.032,47.032,0,1,0-66.514-66.513L220,238.286l-19.71-19.71a47.033,47.033,0,0,0-66.515,66.513ZM167.032,220.8a30.833,30.833,0,0,1,21.944,9.089l25.367,25.368a8,8,0,0,0,11.314,0l25.368-25.368a31.032,31.032,0,0,1,43.886,43.886L220,348.686l-74.911-74.911A31.032,31.032,0,0,1,167.032,220.8Z"/><path d="M224,324a7.976,7.976,0,0,0,5.657-2.343l8-8a8,8,0,1,0-11.314-11.314l-8,8A8,8,0,0,0,224,324Z"/><path d="M252,296a7.976,7.976,0,0,0,5.657-2.343l20-20a8,8,0,0,0-11.314-11.314l-20,20A8,8,0,0,0,252,296Z"/><path d="M378.615,102.071,376,104.686l-2.615-2.615a20.728,20.728,0,0,0-29.314,29.314l26.272,26.272a8,8,0,0,0,11.314,0l26.272-26.272a20.728,20.728,0,0,0-29.314-29.314ZM398,116.728a4.7,4.7,0,0,1-1.385,3.343L376,140.686l-20.615-20.615a4.728,4.728,0,1,1,6.686-6.686l8.272,8.272a8,8,0,0,0,11.314,0l8.272-8.272A4.728,4.728,0,0,1,398,116.728Z"/><path d="M434,104a7.976,7.976,0,0,0,5.657-2.343l26.272-26.272a20.728,20.728,0,0,0-29.314-29.314L434,48.686l-2.615-2.615a20.728,20.728,0,0,0-29.314,29.314l26.272,26.272A7.976,7.976,0,0,0,434,104ZM412,60.728a4.728,4.728,0,0,1,8.071-3.343l8.272,8.272a8,8,0,0,0,11.314,0l8.272-8.272a4.728,4.728,0,1,1,6.686,6.686L434,84.686,413.385,64.071A4.7,4.7,0,0,1,412,60.728Z"/><path d="M152,408a8,8,0,0,0-8-8h-8a8,8,0,0,0,0,16h8A8,8,0,0,0,152,408Z"/><path d="M200,400H176a8,8,0,0,0,0,16h24a8,8,0,0,0,0-16Z"/></g></svg>
